<svg width="24" height="24" viewBox="0 0 24 24" xmlns="http://www.w3.org/2000/svg">
<path d="M10 8.49999C10 9.39999 9.8 10.1 9.3 10.6C8.8 11.1 8.2 11.5 7.4 11.7V11.8C8.4 11.9 9.1 12.3 9.6 12.8C10.1 13.3 10.3 14 10.3 14.8C10.3 15.5 10.1 16.2 9.8 16.8C9.5 17.4 8.9 17.9 8.2 18.2C7.5 18.5 6.6 18.7 5.5 18.7C4.2 18.7 3 18.5 2 18V16C2.5 16.3 3.1 16.5 3.6 16.6C4.2 16.7 4.7 16.8 5.2 16.8C6.1 16.8 6.8 16.6 7.2 16.2C7.6 15.8 7.8 15.3 7.8 14.6C7.8 14 7.6 13.5 7.1 13.2C6.6 12.9 5.9 12.7 4.8 12.7H3.9V10.9H4.9C5.9 10.9 6.6 10.7 7 10.3C7.4 9.99999 7.6 9.49999 7.6 8.89999C7.6 8.39999 7.4 7.99999 7.1 7.69999C6.8 7.39999 6.4 7.29999 5.8 7.29999C5.2 7.29999 4.7 7.39999 4.2 7.59999C3.8 7.79999 3.4 7.99999 3.1 8.29999L2.1 6.69999C2.6 6.29999 3.1 5.99999 3.8 5.79999C4.5 5.59999 5.1 5.39999 6 5.39999C7.2 5.39999 8.2 5.69999 8.9 6.19999C9.6 6.79999 10 7.59999 10 8.49999Z"/>
<path d="M21.7 11.9C21.7 14.1 21.1 15.7 20 16.8C18.9 17.9 17.3 18.4 15.3 18.4H11.8V5.60001H15.7C17.6 5.60001 19.1 6.10001 20.2 7.20001C21.1 8.30001 21.7 9.80001 21.7 11.9ZM19.1 12C19.1 10.5 18.8 9.30001 18.2 8.60001C17.6 7.90001 16.7 7.50001 15.5 7.50001H14.1V16.5H15.3C16.6 16.5 17.6 16.1 18.2 15.4C18.8 14.6 19.1 13.5 19.1 12Z"/>
</svg>
