<svg width="24" height="24" viewBox="0 0 24 24" xmlns="http://www.w3.org/2000/svg">
<path d="M10.8 18.5L9.79999 15.1H5.49999L4.49999 18.5H1.89999L6.19999 5.60001H9.09999L13.4 18.5H10.8ZM9.29999 13.1L8.29999 9.80001C8.19999 9.50001 8.09999 9.10001 7.89999 8.70001C7.69999 8.30001 7.69999 7.80001 7.69999 7.40001C7.59999 7.90001 7.49999 8.30001 7.39999 8.70001C7.29999 9.10001 7.19999 9.50001 7.09999 9.80001L6.09999 13.1H9.29999Z"/>
<path d="M21.2 18.5H15.9V17.2L17.4 16.6V7.50001L15.9 6.90001V5.60001H21.2V6.90001L19.7 7.50001V16.6L21.2 17.2V18.5Z"/>
</svg>
