<svg width="24" height="24" viewBox="0 0 24 24" xmlns="http://www.w3.org/2000/svg">
<mask id="path-1-inside-1" fill="white">
<path d="M5.1001 15.8H4.1001V16.8H5.1001V15.8Z"/>
</mask>
<path d="M5.1001 15.8H4.1001V16.8H5.1001V15.8Z"/>
<path d="M4.1001 15.8V14.8H3.1001V15.8H4.1001ZM5.1001 15.8H6.1001V14.8H5.1001V15.8ZM5.1001 16.8V17.8H6.1001V16.8H5.1001ZM4.1001 16.8H3.1001V17.8H4.1001V16.8ZM4.1001 16.8H5.1001V14.8H4.1001V16.8ZM4.1001 15.8V16.8H6.1001V15.8H4.1001ZM5.1001 15.8H4.1001V17.8H5.1001V15.8ZM5.1001 16.8V15.8H3.1001V16.8H5.1001Z" mask="url(#path-1-inside-1)"/>
<mask id="path-3-inside-2" fill="white">
<path d="M7.1001 15.8H6.1001V16.8H7.1001V15.8Z"/>
</mask>
<path d="M6.1001 15.8V14.8H5.1001V15.8H6.1001ZM7.1001 15.8H8.1001V14.8H7.1001V15.8ZM7.1001 16.8V17.8H8.1001V16.8H7.1001ZM6.1001 16.8H5.1001V17.8H6.1001V16.8ZM6.1001 16.8H7.1001V14.8H6.1001V16.8ZM6.1001 15.8V16.8H8.1001V15.8H6.1001ZM7.1001 15.8H6.1001V17.8H7.1001V15.8ZM7.1001 16.8V15.8H5.1001V16.8H7.1001Z" mask="url(#path-3-inside-2)"/>
<path d="M9.1001 15.8H8.1001V16.8H9.1001V15.8Z"/>
<path d="M14.1001 15.8H13.1001V16.8H14.1001V15.8Z"/>
<path d="M16.1001 15.8H15.1001V16.8H16.1001V15.8Z"/>
<path d="M17.1001 15.8H16.1001V16.8H17.1001V15.8Z"/>
<path d="M19.1001 15.8H18.1001V16.8H19.1001V15.8Z"/>
<path d="M20.1001 15.8H19.1001V16.8H20.1001V15.8Z"/>
<path d="M6.1001 16.8H5.1001V17.8H6.1001V16.8Z"/>
<path d="M9.1001 16.8H8.1001V17.8H9.1001V16.8Z"/>
<path d="M10.1001 16.8H9.1001V17.8H10.1001V16.8Z"/>
<path d="M11.1001 16.8H10.1001V17.8H11.1001V16.8Z"/>
<path d="M13.1001 16.8H12.1001V17.8H13.1001V16.8Z"/>
<path d="M16.1001 16.8H15.1001V17.8H16.1001V16.8Z"/>
<path d="M5.1001 17.8H4.1001V18.8H5.1001V17.8Z"/>
<path d="M7.1001 17.8H6.1001V18.8H7.1001V17.8Z"/>
<path d="M8.1001 17.8H7.1001V18.8H8.1001V17.8Z"/>
<path d="M10.1001 17.8H9.1001V18.8H10.1001V17.8Z"/>
<path d="M11.1001 17.8H10.1001V18.8H11.1001V17.8Z"/>
<path d="M13.1001 17.8H12.1001V18.8H13.1001V17.8Z"/>
<path d="M14.1001 17.8H13.1001V18.8H14.1001V17.8Z"/>
<path d="M17.1001 17.8H16.1001V18.8H17.1001V17.8Z"/>
<path d="M18.1001 17.8H17.1001V18.8H18.1001V17.8Z"/>
<path d="M20.1001 17.8H19.1001V18.8H20.1001V17.8Z"/>
<path d="M7.1001 18.8H6.1001V19.8H7.1001V18.8Z"/>
<path d="M10.1001 18.8H9.1001V19.8H10.1001V18.8Z"/>
<path d="M12.1001 18.8H11.1001V19.8H12.1001V18.8Z"/>
<path d="M13.1001 18.8H12.1001V19.8H13.1001V18.8Z"/>
<path d="M15.1001 18.8H14.1001V19.8H15.1001V18.8Z"/>
<path d="M17.1001 18.8H16.1001V19.8H17.1001V18.8Z"/>
<path d="M6.1001 12.8H5.1001V13.8H6.1001V12.8Z"/>
<path d="M8.1001 12.8H7.1001V13.8H8.1001V12.8Z"/>
<path d="M10.1001 12.8H9.1001V13.8H10.1001V12.8Z"/>
<path d="M13.1001 12.8H12.1001V13.8H13.1001V12.8Z"/>
<path d="M15.1001 12.8H14.1001V13.8H15.1001V12.8Z"/>
<path d="M18.1001 12.8H17.1001V13.8H18.1001V12.8Z"/>
<path d="M19.1001 12.8H18.1001V13.8H19.1001V12.8Z"/>
<path d="M7.1001 13.8H6.1001V14.8H7.1001V13.8Z"/>
<path d="M8.1001 13.8H7.1001V14.8H8.1001V13.8Z"/>
<path d="M9.1001 13.8H8.1001V14.8H9.1001V13.8Z"/>
<path d="M11.1001 13.8H10.1001V14.8H11.1001V13.8Z"/>
<path d="M12.1001 13.8H11.1001V14.8H12.1001V13.8Z"/>
<path d="M15.1001 13.8H14.1001V14.8H15.1001V13.8Z"/>
<path d="M17.1001 13.8H16.1001V14.8H17.1001V13.8Z"/>
<path d="M18.1001 13.8H17.1001V14.8H18.1001V13.8Z"/>
<path d="M5.1001 13.8H4.1001V14.8H5.1001V13.8Z"/>
<path d="M6.1001 14.8H5.1001V15.8H6.1001V14.8Z"/>
<path d="M11.1001 14.8H10.1001V15.8H11.1001V14.8Z"/>
<path d="M13.1001 14.8H12.1001V15.8H13.1001V14.8Z"/>
<path d="M14.1001 14.8H13.1001V15.8H14.1001V14.8Z"/>
<path d="M17.1001 14.8H16.1001V15.8H17.1001V14.8Z"/>
<path d="M20.1001 13.8H19.1001V14.8H20.1001V13.8Z"/>
<path d="M14.1001 7.80005H13.1001V8.80005H14.1001V7.80005Z"/>
<path d="M9.1001 8.80005H8.1001V9.80005H9.1001V8.80005Z"/>
<path d="M16.1001 8.80005H15.1001V9.80005H16.1001V8.80005Z"/>
<path d="M9.1001 4.80005H8.1001V5.80005H9.1001V4.80005Z"/>
<path d="M15.1001 5.80005H14.1001V6.80005H15.1001V5.80005Z"/>
<path d="M11.1001 6.80005H10.1001V7.80005H11.1001V6.80005Z"/>
<path d="M6.1001 6.80005H5.1001V7.80005H6.1001V6.80005Z"/>
<path d="M19.1001 6.80005H18.1001V7.80005H19.1001V6.80005Z"/>
<path d="M19.1001 13.8V17.8C19.1001 18.3 18.6001 18.8 18.1001 18.8H6.1001C5.5001 18.8 5.1001 18.3 5.1001 17.8V13.8C5.1001 13.3 4.7001 12.8 4.1001 12.8C3.5001 12.8 3.1001 13.3 3.1001 13.8V18.8C3.1001 19.9 4.0001 20.8 5.1001 20.8H19.1001C20.2001 20.8 21.1001 19.9 21.1001 18.8V13.8C21.1001 13.3 20.6001 12.8 20.1001 12.8C19.6001 12.8 19.1001 13.3 19.1001 13.8Z"/>
<path d="M20.1001 10.8C20.6001 10.8 21.1001 10.4 21.1001 9.80005V4.80005C21.1001 3.70005 20.2001 2.80005 19.1001 2.80005H5.1001C4.0001 2.80005 3.1001 3.70005 3.1001 4.80005V9.80005C3.1001 10.4 3.5001 10.8 4.1001 10.8C4.7001 10.8 5.1001 10.4 5.1001 9.80005V5.80005C5.1001 5.30005 5.5001 4.80005 6.1001 4.80005H18.1001C18.6001 4.80005 19.1001 5.30005 19.1001 5.80005V9.80005C19.1001 10.4 19.6001 10.8 20.1001 10.8Z"/>
<path d="M1.2998 12.8C1.2998 13.3 1.6998 13.8 2.2998 13.8H21.5998C22.0998 13.8 22.5998 13.3 22.5998 12.8C22.5998 12.3 22.0998 11.8 21.5998 11.8H2.2998C1.6998 11.8 1.2998 12.3 1.2998 12.8Z"/>
</svg>
