<svg width="24" height="24" viewBox="0 0 24 24" fill="none" xmlns="http://www.w3.org/2000/svg">
<path d="M11.4 1.69999C11.3 1.69999 11.1 1.69999 11.2 1.79999C11.2 1.99999 11.4 1.99999 11.4 2.19999C11.4 2.29999 11.3 2.39999 11.2 2.49999C11 2.49999 11 2.49999 11.2 2.59999C11.4 2.69999 11.8 2.79999 12.1 2.79999C12.4 2.79999 12.9 2.79999 13.1 2.59999C13.2 2.49999 13.3 2.49999 13.1 2.39999C13 2.19999 13 2.19999 13 1.99999C13.1 1.89999 13.1 1.69999 13 1.59999C12.9 1.49999 12.4 1.69999 12.1 1.69999C11.8 1.79999 11.4 1.69999 11.4 1.69999Z" fill="white" fill-opacity="0.7"/>
<path d="M10.8 2.50001C10.6 2.40001 10.5 2.50001 10.5 2.60001C10.5 2.60001 10.5 2.70001 10.5 2.80001C10.5 2.90001 10.4 2.90001 10.4 3.00001C10.4 3.10001 10.4 3.20001 10.7 3.20001C11 3.20001 11.1 3.20001 11.2 3.20001C11.3 3.20001 11.3 3.40001 11.3 3.50001C11.2 3.50001 11.1 3.70001 11.2 3.70001C11.5 4.00001 11.8 4.10001 12.2 4.10001C12.6 4.10001 13 4.00001 13.1 3.90001C13.2 3.80001 13.2 3.70001 13.2 3.70001C13.2 3.70001 13 3.50001 13.1 3.40001C13.2 3.30001 13.2 3.30001 13.4 3.30001C13.5 3.30001 13.8 3.40001 13.9 3.30001C14 3.20001 14 3.10001 13.9 3.00001C13.8 2.90001 13.7 2.80001 13.8 2.70001C13.8 2.60001 13.7 2.60001 13.6 2.60001C13.5 2.60001 13.3 2.90001 13.2 3.00001C12.9 3.00001 12.5 3.10001 12.2 3.00001C11.9 3.00001 11.2 2.80001 10.8 2.50001Z" fill="white" fill-opacity="0.7"/>
<path d="M10.5 3.60001C10.5 3.60001 10.4 3.50001 10.2 3.70001C10.1 3.90001 10 4.10001 10.1 4.20001C10.1 4.30001 10.3 4.40001 10.5 4.30001C10.7 4.20001 10.9 4.30001 10.9 4.40001C10.9 4.50001 10.8 5.00001 11.2 5.10001C11.6 5.20001 11.9 5.20001 12.1 5.20001C12.3 5.20001 13.2 5.20001 13.2 4.80001C13.3 4.50001 13.2 4.20001 13.4 4.20001C13.7 4.20001 14.1 4.50001 14 4.00001C14 3.60001 13.6 3.40001 13.5 3.60001C13.3 3.80001 12.8 4.20001 12 4.20001C11.3 4.30001 10.9 3.90001 10.5 3.60001Z" fill="white" fill-opacity="0.7"/>
<path d="M10.2 4.59999C10.2 4.59999 10.1 5.19999 10.4 5.19999C10.7 5.19999 10.9 5.49999 10.9 5.69999C10.9 5.89999 11.1 6.39999 12.2 6.39999C13.2 6.39999 13.4 6.19999 13.5 5.69999C13.6 5.19999 13.8 5.29999 13.9 5.19999C14 5.19999 14.2 4.89999 14.2 4.59999C14.2 4.29999 14 4.39999 14 4.49999C13.9 4.69999 13.8 4.59999 13.7 4.69999C13.6 4.79999 13.7 5.19999 13 5.39999C12.6 5.49999 12.1 5.49999 11.8 5.39999C11.5 5.29999 11 5.09999 11 4.89999C11 4.69999 10.9 4.69999 10.8 4.69999C10.7 4.69999 10.6 4.49999 10.5 4.49999C10.3 4.49999 10.2 4.49999 10.2 4.59999Z" fill="white" fill-opacity="0.7"/>
<path d="M7.19997 2.7C6.29997 2.7 4.89997 3.3 4.49997 5.6C4.09997 7.9 6.29997 8.7 6.39997 8.7C6.49997 8.7 7.69997 8.9 6.99997 9.7C6.29997 10.5 6.49997 10.6 6.99997 10.8C7.49997 11 8.69997 11.4 7.99997 12.2C7.79997 12.5 7.39997 12.8 7.49997 13.1C7.49997 13.4 8.19997 13.4 8.29997 13.5C8.39997 13.5 8.49997 15.4 10.4 15.3C12.2 15.1 12 13.2 11.7 12.6C11.4 12 11.3 12 10.8 11.6C10.3 11.3 9.69997 10.4 9.49997 9.9C9.29997 9.5 9.29997 8.8 9.79997 8.9C10.4 9.1 10.9 10.4 11.1 10.6C11.3 10.8 12.1 11.4 13 10.7C13.9 10 13.2 9.5 14.1 9C14.3 8.8 14.8 9.1 14.8 9.5C14.8 9.9 14 11.1 13.5 11.5C13 11.9 12.4 12.2 12.2 13.4C12.1 14.6 13.3 15.5 14.3 15.4C15.3 15.3 15.8 13.9 15.7 13.6C15.7 13.6 16.4 13.6 16.6 13.4C16.8 13.2 16.1 12.7 15.9 12.4C15.7 12.1 15.8 11.3 17 11C18.3 10.7 17.5 10.4 17.2 10.2C16.9 10 16.4 9.3 17.3 9.1C18.2 8.9 21.9 5.6 18.2 3.5C15.8 2.1 14.6 4.5 14.4 4.8C13.9 5.6 13.8 5.9 13.7 6.8C13.6 7.4 13.2 6.8 12.8 7C12.6 7.1 12.6 7.3 11.9 7.4C11.4 7.4 11.1 6.9 10.8 7C9.99997 7.3 10.1 6.7 10.1 6.2C10.1 5.7 9.29997 2.6 7.19997 2.7Z" fill="white" fill-opacity="0.7"/>
<path d="M4.39999 11.7C3.49999 12.6 3.19999 13.2 3.29999 13.7C3.49999 14.1 4.19999 15.5 4.39999 17.8C4.59999 20.1 4.39999 22.3 5.39999 22.3C5.69999 22.3 6.19999 22.2 6.39999 22.1C6.89999 22 6.09999 20.3 5.99999 19.8C5.89999 19.3 4.99999 16.6 5.79999 15.5C6.19999 14.8 5.99999 14.5 5.99999 14.3C5.99999 14.2 5.39999 13.2 5.79999 13.1C6.19999 13 6.49999 13 6.89999 13C7.29999 13.1 7.79999 12 7.49999 11.3C7.19999 10.6 6.19999 10.6 6.19999 10.6C6.19999 10.6 5.69999 10.7 5.99999 11C6.19999 11.3 5.79999 11.9 5.49999 12C5.19999 12.1 4.99999 12.2 4.99999 11.8C4.99999 11.3 4.49999 11.6 4.39999 11.7Z" fill="white" fill-opacity="0.7"/>
<path d="M19.8 11.7C20.7 12.6 21 13.2 20.9 13.7C20.7 14.1 20 15.5 19.8 17.8C19.6 20 19.8 22.3 18.8 22.3C18.5 22.3 18 22.2 17.8 22.1C17.3 22 18.1 20.3 18.2 19.8C18.3 19.3 19.2 16.6 18.4 15.5C17.9 14.9 18.1 14.6 18.2 14.4C18.2 14.3 18.8 13.3 18.4 13.2C17.9 13 17.6 13 17.2 13C16.8 13.1 16.3 12 16.6 11.3C16.9 10.6 17.9 10.6 17.9 10.6C17.9 10.6 18.4 10.6 18.1 10.9C17.9 11.2 18.3 11.8 18.6 11.9C18.9 12 19.1 12.1 19.1 11.7C19.2 11.3 19.7 11.6 19.8 11.7Z" fill="white" fill-opacity="0.7"/>
</svg>
