<svg width="24" height="24" viewBox="0 0 24 24" fill="none" xmlns="http://www.w3.org/2000/svg">
<path d="M12.0998 18.5001H9.6998V12.8001H4.6998V18.5001H2.2998V5.6001H4.6998V10.8001H9.6998V5.6001H12.0998V18.5001Z" fill="white"/>
<path d="M17.8996 5.6001C19.4996 5.6001 20.5996 5.9001 21.2996 6.6001C21.9996 7.3001 22.3996 8.3001 22.3996 9.5001C22.3996 10.2001 22.2996 10.9001 21.9996 11.6001C21.6996 12.2001 21.1996 12.8001 20.4996 13.1001C19.7996 13.5001 18.8996 13.7001 17.6996 13.7001H16.4996V18.4001H14.0996V5.6001H17.8996ZM17.7996 7.5001H16.5996V11.8001H17.4996C18.2996 11.8001 18.8996 11.6001 19.2996 11.3001C19.7996 11.0001 19.9996 10.4001 19.9996 9.6001C19.9996 8.2001 19.2996 7.5001 17.7996 7.5001Z" fill="white"/>
</svg>
