<svg width="24" height="24" viewBox="0 0 24 24" fill="none" xmlns="http://www.w3.org/2000/svg">
<path d="M5.79999 1.5L4.29999 3.5L10.4 7.7C10.4 7.7 11.6 8.4 11.5 9.4C11.4 10.4 11 10.7 12.3 11C13.6 11.3 15.4 10.1 15.8 9.1C16.2 8.1 16.1 7.5 15.1 7C14.6 6.7 13.6 6.6 12.5 6.1C11.8 5.7 5.79999 1.5 5.79999 1.5Z" fill="white"/>
<path d="M16.5 7.4C16.3 7.5 16.3 7.79999 16.3 8.39999C16.3 9.09999 16.2 9.2 16.1 9.3C16 9.5 15.8 9.9 16.2 10C16.8 10.2 17.4 9.8 17.5 9.3C17.6 8.8 17.6 8.6 17.2 7.8C17 7.1 16.5 7.4 16.5 7.4Z" fill="white"/>
<path d="M14.7 10.8C14.2 11 13.6 11.4 12.9 11.4C12.2 11.4 12.2 11.4 11.9 11.3C11.6 11.2 11.6 11.9 11.6 12C11.7 12.2 11.6 12.6 12.5 12.6C13.3 12.6 14 13.5 14 13.9C14 14.2 14.1 18.1 14.2 18.9C14.3 19.8 14.5 22.1 14.5 22.1H16.1C16.1 22.1 16 15.8 16.1 14.2C16.2 12.7 16.5 12.4 16.6 11.8C16.7 11.1 16.6 10.7 16 10.5C15.5 10.3 15 10.7 14.7 10.8Z" fill="white"/>
<path d="M12.4 13.1C12.1 13.3 12.1 13.8 12.5 14.2C12.9 14.8 12.8 14.7 12.9 15.4C13 16.2 13.1 22.1 13.1 22.1H13.7L13.4 15C13.4 15 13.4 14.3 13.5 14.1C13.7 13.7 13.5 13.4 13.2 13.2C12.9 13 12.6 12.9 12.4 13.1Z" fill="white"/>
</svg>
