<svg width="24" height="24" viewBox="0 0 24 24" xmlns="http://www.w3.org/2000/svg">
<path d="M11.5 8.5H10.5V7.5C10.5 6.95 10.05 6.5 9.5 6.5C8.95 6.5 8.5 6.95 8.5 7.5V8.5H7.5C6.95 8.5 6.5 8.95 6.5 9.5C6.5 10.05 6.95 10.5 7.5 10.5H8.5V11.5C8.5 12.05 8.95 12.5 9.5 12.5C10.05 12.5 10.5 12.05 10.5 11.5V10.5H11.5C12.05 10.5 12.5 10.05 12.5 9.5C12.5 8.95 12.05 8.5 11.5 8.5Z"/>
<path d="M14.73 13.31C15.86 11.76 16.36 9.72999 15.71 7.56999C15.03 5.33999 13.14 3.58999 10.86 3.12999C6.21001 2.19999 2.20002 6.21999 3.14002 10.86C3.60002 13.15 5.35002 15.04 7.58002 15.71C9.74002 16.36 11.77 15.86 13.32 14.73L18.88 20.29C19.27 20.68 19.9 20.68 20.29 20.29C20.68 19.9 20.68 19.27 20.29 18.88L14.73 13.31ZM9.50002 14C7.01002 14 5.00002 11.99 5.00002 9.49999C5.00002 7.00999 7.01002 4.99999 9.50002 4.99999C11.99 4.99999 14 7.00999 14 9.49999C14 11.99 11.99 14 9.50002 14Z"/>
</svg>
