<svg width="24" height="24" viewBox="0 0 24 24" fill="none" xmlns="http://www.w3.org/2000/svg">
<path d="M6.89996 1.30005C6.19996 1.50005 4.49996 2.30005 4.39996 3.20005C4.29996 4.10005 4.69996 7.80005 4.49996 8.20005C4.39996 8.70005 3.49996 10.3 3.29996 10.7C2.99996 11.1 2.89996 11.9 3.29996 12.4C3.79996 12.9 3.79996 12.6 4.09996 12.9C4.39996 13.2 4.79996 13.4 5.39996 13.4C5.99996 13.4 5.69996 12.9 6.49996 12.7C7.29996 12.5 7.79996 12.8 8.39996 13.1C8.99996 13.4 10.2 13.4 10.4 12.8C10.5 12.2 10.8 10.7 10.5 10.3C10.3 10 8.69996 8.80005 8.09996 7.20005C7.49996 5.60005 7.39996 2.40005 7.29996 1.90005C7.19996 1.40005 6.89996 1.30005 6.89996 1.30005Z" fill="white"/>
<path d="M4.29979 14.0001C3.59979 13.9001 3.39979 13.9001 3.29979 14.1001C2.99979 14.4001 3.09979 15.1001 3.39979 15.3001C3.69979 15.5001 3.99979 15.6001 4.49979 16.2001C4.99979 16.8001 5.39979 17.4001 5.59979 17.9001C5.79979 18.4001 5.79979 19.9001 5.69979 20.6001C5.59979 21.3001 5.69979 21.8001 5.89979 22.1001C6.09979 22.4001 7.39979 22.7001 7.89979 22.5001C8.39979 22.2001 7.99979 21.9001 7.99979 21.5001C7.99979 21.1001 7.69979 21.0001 7.89979 20.4001C8.19979 19.8001 8.09979 18.4001 8.29979 17.8001C8.49979 17.2001 8.69979 17.1001 8.79979 16.8001C9.09979 16.2001 8.89979 15.6001 9.49979 15.5001C10.3998 15.4001 10.8998 14.2001 9.89979 13.8001C8.99979 13.5001 8.49979 14.0001 8.19979 13.7001C7.99979 13.4001 6.99979 13.0001 6.59979 13.3001C6.29979 13.8001 4.89979 14.1001 4.29979 14.0001Z" fill="white"/>
<path d="M2.89995 15.8C2.39995 15.8 2.09995 16.2 2.29995 16.6C2.49995 17.1 2.99995 17.5 3.29995 17.8C3.59995 18.1 3.19995 20 3.29995 20.2C3.39995 20.4 3.39995 20.6 3.99995 21.3C4.59995 22 4.89995 21.4 4.79995 21.1C4.69995 20.9 4.39995 19.9 4.49995 19.1C4.59995 18.3 4.79995 17.9 4.59995 17.3C4.29995 16.9 3.29995 15.8 2.89995 15.8Z" fill="white"/>
<path d="M15.4999 1.8999C15.0999 2.4999 14.6999 6.4999 14.3999 7.1999C14.0999 7.8999 13.0999 8.3999 13.1999 8.8999C13.2999 9.3999 13.3999 10.1999 13.8999 10.7999C14.3999 11.3999 15.4999 11.9999 16.4999 11.8999C17.4999 11.7999 18.6999 11.4999 18.8999 10.8999C19.0999 10.2999 19.0999 9.0999 18.5999 8.9999C18.0999 8.8999 17.6999 9.2999 17.5999 8.2999C17.4999 7.2999 17.8999 5.9999 18.1999 5.5999C18.4999 5.1999 18.6999 4.5999 18.5999 4.0999C18.4999 3.5999 19.0999 3.2999 18.8999 2.8999C18.6999 2.4999 17.3999 1.6999 16.9999 1.6999C16.5999 1.6999 15.7999 1.4999 15.4999 1.8999Z" fill="white"/>
<path d="M12.7998 9.10003C12.8998 9.70003 12.9998 10.1 13.3998 10.7C13.7998 11.3 14.1998 11.2 14.2998 11.8C14.3998 12.4 13.6998 13.4 13.1998 13.1C12.6998 12.8 12.2998 12.6 11.9998 11.8C11.6998 11 11.1998 10.3 11.6998 9.90003C12.1998 9.50003 12.6998 8.90003 12.7998 9.10003Z" fill="white"/>
<path d="M19.3999 11.3C18.6999 11.4 18.0999 12 16.9999 12.2C15.8999 12.4 14.8999 12.8 14.7999 13.4C14.6999 14 16.2999 16.2 16.7999 16.9C17.2999 17.6 19.1999 20.5 19.5999 20.8C19.9999 21.1 21.3999 19.2 21.3999 18.6C21.3999 18 21.6999 16.9 20.4999 16C19.2999 15.1 18.6999 13.7 19.2999 13.4C19.8999 13.1 19.9999 13.2 20.0999 12.6C20.1999 12 19.8999 11.3 19.3999 11.3Z" fill="white"/>
<path d="M21.0001 12.8001C20.5001 13.2001 19.7001 13.6001 19.8001 14.2001C19.9001 14.8001 20.3001 14.9001 20.7001 15.3001C21.1001 15.7001 22.2001 16.3001 22.2001 16.8001C22.2001 17.3001 22.7001 17.1001 22.7001 16.5001C22.7001 15.9001 22.8001 15.6001 22.3001 15.2001C21.8001 14.8001 21.7001 14.2001 21.7001 13.6001C21.7001 13.0001 21.3001 12.6001 21.0001 12.8001Z" fill="white"/>
</svg>
