<svg width="24" height="24" viewBox="0 0 24 24" fill="none" xmlns="http://www.w3.org/2000/svg">
<path d="M7.29986 1.30005C6.59986 1.50005 4.89986 2.30005 4.79986 3.20005C4.59986 4.00005 5.09986 7.70005 4.89986 8.10005C4.79986 8.60005 3.89986 10.2 3.69986 10.6C3.39986 11 3.29986 11.8 3.69986 12.3C4.19986 12.8 4.19986 12.5 4.49986 12.8C4.79986 13.1 5.19986 13.3 5.79986 13.3C6.39986 13.3 6.09986 12.8 6.89986 12.6C7.69986 12.4 8.19986 12.7 8.79986 13C9.39986 13.3 10.5999 13.3 10.7999 12.7C10.8999 12.1 11.1999 10.6 10.8999 10.2C10.5999 9.80005 9.09986 8.80005 8.39986 7.20005C7.69986 5.60005 7.79986 2.40005 7.69986 1.90005C7.59986 1.40005 7.29986 1.30005 7.29986 1.30005Z" fill="white"/>
<path d="M4.70018 14.0001C4.00018 13.9001 3.80018 13.9001 3.70018 14.1001C3.40018 14.4001 3.50018 15.1001 3.80018 15.3001C4.10018 15.5001 4.40018 15.6001 4.90018 16.2001C5.40018 16.8001 5.80018 17.4001 6.00018 17.9001C6.20018 18.4001 6.20018 19.9001 6.10018 20.6001C6.00018 21.3001 6.10018 21.8001 6.30018 22.1001C6.50018 22.4001 7.80018 22.7001 8.30018 22.5001C8.80018 22.2001 8.40018 21.9001 8.40018 21.5001C8.40018 21.1001 8.10018 21.0001 8.30018 20.4001C8.60018 19.8001 8.50018 18.4001 8.70018 17.8001C8.90018 17.2001 9.10018 17.1001 9.20018 16.8001C9.50018 16.2001 9.30018 15.6001 9.90018 15.5001C10.8002 15.4001 11.3002 14.2001 10.3002 13.8001C9.40018 13.5001 8.90018 14.0001 8.60018 13.7001C8.40018 13.4001 7.40018 13.0001 7.00018 13.3001C6.60018 13.8001 5.30018 14.1001 4.70018 14.0001Z" fill="white"/>
<path d="M3.29985 15.8C2.79985 15.8 2.49985 16.2 2.69985 16.6C2.89985 17.1 3.39985 17.5 3.69985 17.8C3.99985 18.1 3.59985 20 3.69985 20.2C3.79985 20.4 3.79985 20.6 4.39985 21.3C4.99985 22 5.29985 21.4 5.19985 21.1C5.09985 20.9 4.79985 19.9 4.89985 19.1C5.09985 18.3 5.19985 17.9 4.99985 17.3C4.79985 16.7 3.69985 15.8 3.29985 15.8Z" fill="white"/>
<path d="M16.7001 1.30005C17.4001 1.50005 19.1001 2.30005 19.2001 3.20005C19.3001 4.10005 18.9001 7.80005 19.1001 8.20005C19.2001 8.70005 20.1001 10.3 20.3001 10.7C20.6001 11.1 20.7001 11.9 20.3001 12.4C19.8001 12.9 19.8001 12.6 19.5001 12.9C19.2001 13.2 18.8001 13.4 18.2001 13.4C17.6001 13.4 17.9001 12.9 17.1001 12.7C16.3001 12.5 15.8001 12.8 15.2001 13.1C14.6001 13.4 13.4001 13.4 13.2001 12.8C13.1001 12.2 12.8001 10.7 13.1001 10.3C13.4001 9.90005 15.0001 8.70005 15.7001 7.10005C16.3001 5.50005 16.3001 2.30005 16.4001 1.80005C16.4001 1.40005 16.7001 1.30005 16.7001 1.30005Z" fill="white"/>
<path d="M19.3002 14.0001C20.0002 13.9001 20.2002 13.9001 20.3002 14.1001C20.6002 14.4001 20.5002 15.1001 20.2002 15.3001C19.9002 15.5001 19.6002 15.6001 19.1002 16.2001C18.6002 16.8001 18.2002 17.4001 18.0002 17.9001C17.8002 18.4001 17.8002 19.9001 17.9002 20.6001C18.0002 21.3001 17.9002 21.8001 17.7002 22.1001C17.5002 22.3001 16.2002 22.7001 15.7002 22.5001C15.2002 22.3001 15.6002 21.9001 15.6002 21.5001C15.6002 21.1001 15.9002 21.0001 15.7002 20.4001C15.4002 19.8001 15.5002 18.4001 15.3002 17.8001C15.1002 17.2001 14.9002 17.1001 14.8002 16.8001C14.5002 16.2001 14.7002 15.6001 14.1002 15.5001C13.2002 15.4001 12.7002 14.2001 13.7002 13.8001C14.6002 13.5001 15.1002 14.0001 15.4002 13.7001C15.6002 13.4001 16.6002 13.0001 17.0002 13.3001C17.4002 13.8001 18.7002 14.1001 19.3002 14.0001Z" fill="white"/>
<path d="M20.7002 15.8C21.2002 15.8 21.5002 16.2 21.3002 16.6C21.1002 17.1 20.6002 17.5 20.3002 17.8C20.0002 18.1 20.4002 20 20.3002 20.2C20.2002 20.5 20.2002 20.6 19.6002 21.3C19.0002 22 18.7002 21.4 18.8002 21.1C18.9002 20.9 19.2002 19.9 19.1002 19.1C18.9002 18.3 18.8002 17.9 19.0002 17.3C19.3002 16.9 20.3002 15.8 20.7002 15.8Z" fill="white"/>
</svg>
