<svg width="24" height="24" viewBox="0 0 24 24" fill="none" xmlns="http://www.w3.org/2000/svg">
<path d="M20.29 18.88L14.73 13.32C15.86 11.77 16.36 9.73999 15.71 7.57999C15.03 5.34999 13.14 3.59999 10.86 3.13999C6.21001 2.19999 2.20002 6.21999 3.14002 10.86C3.60002 13.15 5.35002 15.04 7.58002 15.71C9.74002 16.36 11.77 15.86 13.32 14.73L18.88 20.29C19.27 20.68 19.9 20.68 20.29 20.29C20.68 19.9 20.68 19.27 20.29 18.88ZM5.00002 9.49999C5.00002 7.00999 7.01002 4.99999 9.50002 4.99999C11.99 4.99999 14 7.00999 14 9.49999C14 11.99 11.99 14 9.50002 14C7.01002 14 5.00002 11.99 5.00002 9.49999Z" fill="white"/>
</svg>
