<svg width="24" height="24" viewBox="0 0 24 24" fill="none" xmlns="http://www.w3.org/2000/svg">
<path fill-rule="evenodd" clip-rule="evenodd" d="M17.1 1.79999C15.8 2.79999 13.7 2.49999 11.9 2.19999C11.4 2.19999 10.9 2.19999 10.4 2.09999H10.3C10.3 2.19999 10.3 2.19999 10.3 2.29999C10.3 2.39999 10.3 2.39999 10.4 2.49999C11.4 3.09999 16 3.59999 17.4 2.89999C17.4 2.59999 17.4 2.29999 17.5 1.89999C17.3 1.79999 17.2 1.79999 17.1 1.79999ZM10.3 3.39999C10.3 3.39999 10.3 3.29999 10.4 3.29999C10.1 3.19999 9.90001 3.19999 9.60001 3.09999C9.50001 3.09999 9.50001 3.09999 9.40001 2.99999V2.89999C9.60001 2.59999 9.80001 2.69999 10.2 2.59999H10.3C10.2 2.49999 10.2 2.39999 10.1 2.19999C10 2.19999 9.90001 2.19999 9.80001 2.09999C9.20001 2.49999 8.80001 2.39999 8.50001 2.99999C8.50001 3.19999 8.50001 3.29999 8.60001 3.39999C9.00001 4.09999 9.90001 3.59999 10.3 3.39999ZM11.7 3.79999C11.6 3.59999 11.5 3.39999 11.3 3.19999C11.2 3.19999 11.1 3.19999 10.9 3.19999C10.6 3.39999 10.3 3.59999 10 3.69999C10 3.69999 10 3.79999 9.90001 3.79999C11.3 4.09999 10.7 6.09999 9.90001 6.59999C10.1 7.39999 11 7.69999 11.4 8.29999C12.3 9.49999 12.4 11.8 13.5 12.7C13.7 12.7 13.9 12.7 14 12.7C14.9 11.1 14.5 7.69999 14.9 5.69999C15 4.99999 14.9 4.09999 14.5 3.79999C13.9 3.19999 12.7 3.79999 11.7 3.79999ZM9.30001 11.2C9.50001 9.59999 9.00001 7.99999 9.40001 6.59999C9.60001 6.19999 11.5 5.59999 10.4 4.39999C10 3.79999 8.90001 3.89999 8.10001 3.89999C8.00001 3.89999 7.90001 3.99999 7.80001 3.99999C7.10001 5.09999 7.80001 6.89999 8.00001 8.09999C8.00001 9.39999 7.90001 10.6 7.90001 11.9C7.90001 12.6 7.90001 13.3 8.00001 14C7.90001 15.2 7.80001 16.4 7.60001 17.7C7.50001 18.6 6.70001 21.6 6.80001 21.8C6.90001 21.9 7.00001 22 7.10001 22.2C7.50001 22.3 7.90001 22 8.40001 22.1C8.90001 22.2 9.10001 22.5 9.80001 22.5C10 22.3 10.2 22.2 10.2 21.9C10.3 21.6 9.10001 20.5 8.90001 19.6C8.60001 17.4 8.90001 13.2 9.30001 11.2Z" fill="white" fill-opacity="0.7"/>
</svg>
