<svg width="24" height="24" viewBox="0 0 24 24" fill="none" xmlns="http://www.w3.org/2000/svg">
<g clip-path="url(#clip0)">
<path d="M4.7 5.10015C4.3 5.10015 3.5 5.30015 3.5 5.90015C3.5 6.60015 3.6 8.50015 4.1 9.90015C4.6 11.3001 5.6 20.8001 5.9 22.8001C6 23.8001 8.5 23.2001 8.2 22.3001C7.7 20.8001 6.7 11.3001 7.3 9.90015C7.9 8.60015 8.4 8.90015 8.8 8.00015C9.3 6.80015 9 5.40015 8.3 4.80015C8 4.40015 6.6 3.70015 5.7 4.10015C4.8 4.60015 4.7 5.10015 4.7 5.10015Z" fill="white" fill-opacity="0.7"/>
<path d="M18.3 6.29995C18.2 5.39995 17.7 4.19995 16.7 3.09995C15.7 1.99995 13.8 3.29995 13.2 3.59995C12.8 3.79995 12.7 4.19995 12.6 4.29995C12.6 4.39995 12.4 4.69995 12.4 4.89995C12.3 5.29995 12 5.69995 11.6 5.99995C11.4 6.09995 11.1 6.29995 10.9 6.29995C10.8 6.29995 10.7 6.29995 10.6 6.29995C10.5 6.29995 10.5 6.29995 10.4 6.29995C10.3 6.29995 10.3 6.29995 10.3 6.19995C10.2 6.19995 10.1 6.09995 10.1 6.09995C9.90002 6.09995 9.90002 5.99995 9.80002 5.99995C9.80002 5.89995 9.70002 5.89995 9.70002 5.89995C9.70002 5.89995 9.80002 5.89995 9.90002 5.99995C10 5.99995 10.1 5.99995 10.3 6.09995C10.6 6.19995 11.1 6.19995 11.5 5.89995C11.9 5.69995 12.2 5.29995 12.3 4.89995C12.4 4.69995 12.7 3.99995 12.2 3.29995C11.3 2.19995 10 3.49995 9.50002 3.79995C9.40002 3.79995 9.50002 4.69995 8.40002 4.49995C8.10002 4.49995 8.90002 4.99995 9.20002 5.79995C9.60002 6.59995 9.60002 7.99995 8.50002 8.89995C7.70002 9.49995 8.50002 9.29995 9.60002 10.0999C10.7 10.9 13.2 19.4 14.8 19.6C16.4 19.8 17.4 16.4999 17.6 15.0999C17.9 13.7999 18.4 7.19995 18.3 6.29995Z" fill="white" fill-opacity="0.7"/>
<path d="M8.00021 3.4C7.50021 3.3 7.80021 3.1 7.90021 2.7C8.00021 2.3 7.70021 2 7.30021 2C6.90021 2 6.50021 2.2 6.10021 2.4C5.80021 2.6 4.10021 3.4 4.60021 4C4.90021 4.3 5.50021 4 5.80021 3.9C6.20021 3.8 6.60021 3.7 7.10021 3.8C7.90021 4 8.90021 4.9 9.40021 3.8C9.40021 3.8 8.40021 3.6 8.00021 3.4Z" fill="white" fill-opacity="0.7"/>
<path d="M7.7002 1.70005C7.9002 1.80005 8.2002 2.70005 8.2002 2.90005C8.2002 3.10005 9.0002 2.50005 10.4002 2.50005C11.8002 2.50005 15.0002 2.50005 16.1002 2.70005C17.2002 2.90005 18.9002 3.30005 19.9002 3.20005C20.9002 3.10005 21.3002 2.40005 21.4002 2.00005C21.5002 1.60005 21.7002 0.700052 21.2002 1.00005C20.7002 1.30005 19.6002 2.10005 18.3002 2.10005C17.0002 2.00005 14.9002 1.60005 13.3002 1.40005C11.1002 1.20005 7.7002 1.70005 7.7002 1.70005Z" fill="white" fill-opacity="0.7"/>
</g>
<defs>
<clipPath id="clip0">
<rect width="24" height="24" fill="white"/>
</clipPath>
</defs>
</svg>
