<svg width="24" height="24" viewBox="0 0 24 24" fill="none" xmlns="http://www.w3.org/2000/svg">
<path fill-rule="evenodd" clip-rule="evenodd" d="M11.2 2.3C11.2 2.3 11.3 2.3 11.3 2.4C11.5 2.3 11.5 2 11.7 1.9C11.8 1.8 12.3 2.1 12.6 2.2C12.7 2.2 12.7 2.1 12.8 2.1C12.8 1.7 12.5 1.6 12.2 1.3C12.1 1.3 11.9 1.3 11.8 1.4C11.7 1.3 11.7 1.3 11.6 1.1C11.5 1.1 11.4 1.1 11.3 1C11.1 1.3 11 1.5 10.5 1.4C10.4 1.5 10.4 1.6 10.4 1.9C10.4 1.9 10.4 1.9 10.4 2C10.8 2.1 11.2 1.9 11.2 2.3ZM12 2.2H11.8C11.7 2.3 11.7 2.4 11.6 2.5C11.4 2.6 10.9 2.6 10.6 2.7C10.6 2.8 10.6 2.9 10.6 3.1C10.7 3.2 10.7 3.2 10.8 3.3C11 3.3 11.2 3.3 11.4 3.2C11.5 3.3 11.6 3.4 11.7 3.6C11.8 3.6 11.8 3.6 11.9 3.5C11.9 3.4 12 3.3 12 3.1C12.1 3.1 12.1 3.1 12.2 3C12.6 3.2 12.9 3.4 13.5 3.4C13.5 3.4 13.5 3.4 13.5 3.3C13.2 2.2 13 2.7 12.1 2.4C12 2.4 12 2.4 12 2.2ZM12.5 3.6C12.4 3.5 12.4 3.3 12.2 3.2H12.1C11.8 3.7 11.8 3.8 11 3.9C10.9 4.1 10.9 4.3 10.9 4.6C11.2 4.7 11.3 4.5 11.6 4.6C11.7 4.7 11.8 4.8 11.8 5H12C11.8 5.5 11.5 5.5 11 5.7C10.9 6 11 6.2 11 6.4L11.1 6.5C11.4 6.5 11.5 6.3 11.7 6.2C11.9 6.3 12 6.4 12 6.7C12.4 6.6 12.2 6 12.5 5.7C13 6 13.5 6.3 13.9 5.9C13.9 5.9 14 5.9 14 5.8C14 5.6 13.9 5.3 13.9 5.1C13.7 5 13.3 4.7 13 4.8C12.8 4.8 12.7 5.2 12.5 5.1C12.4 5 12.4 4.8 12.2 4.7C12.2 4.5 12.3 4.4 12.4 4.3C12.9 4.5 12.9 4.7 13.7 4.7C13.8 4.5 13.7 4.1 13.6 3.9C13.5 3.5 13 3.5 12.5 3.6ZM13.2 6.6H13.1C13 6.5 12.9 6.4 12.8 6.2C12.8 6.2 12.8 6.2 12.7 6.2C12.6 6.5 12.6 6.8 12.5 7.1C12.3 7.2 12 7.4 11.8 7.5C11.8 7.7 11.7 8 11.8 8.2C11.9 8.3 11.9 8.4 12 8.4C12.2 8.3 12.3 8.1 12.4 8C12.7 8 12.8 8.2 12.8 8.4C13 8.2 13 7.8 13.1 7.4C13.1 7.4 13.1 7.4 13.2 7.3C13.8 7.5 14 7.5 14.6 7.2C14.6 6.9 14.5 6.5 14.3 6.4L13.7 6.2C13.4 6.3 13.3 6.4 13.2 6.6ZM13.5 7.8C13.4 8.1 13.2 8.4 13.1 8.7C12.8 8.9 12.5 8.8 12.3 9C12.2 9.3 12.2 9.5 12.3 9.7C12.6 9.8 12.8 9.6 13 9.5C13.2 9.6 13.2 9.8 13.3 10C13.6 9.9 13.7 9.5 13.7 9.1C13.9 9 14.8 9.6 15.2 9C15.2 8.6 15.1 8.2 15.1 7.8C14.5 7.7 14.3 8 13.8 8.1C13.6 8.1 13.6 7.9 13.5 7.8ZM14 9.4C13.8 9.6 13.7 10 13.5 10.1C13.3 10.3 12.8 10.2 12.6 10.4C12.6 10.6 12.5 10.9 12.6 11.1C12.6 11.1 12.6 11.2 12.7 11.2C12.9 11.1 13.2 11.1 13.4 11C13.4 11.1 13.5 11.3 13.5 11.4C13.6 11.5 13.5 11.4 13.6 11.5C13.9 11.3 13.9 10.8 14.2 10.6C14.4 10.9 15 11.2 15.5 10.9C15.7 10.8 15.6 10 15.6 9.7C15.2 9.5 14.7 9.7 14.4 9.8C14.2 9.8 14.2 9.6 14 9.4ZM15.6 11.7C15.2 11.6 14.9 11.6 14.5 11.7C14.3 11.6 14.3 11.5 14.4 11.2H14.2C13.7 11.9 13.8 11.6 12.9 11.8C12.7 11.9 12.4 12.3 12.6 12.6V12.7C12.8 12.7 13 12.7 13.3 12.6C13.4 12.8 13.4 12.9 13.4 13.2C13.8 13 13.8 12.5 14.3 12.4C14.4 12.9 14.8 13 15.4 13C15.4 13 15.4 13 15.5 13C15.6 12.6 15.6 12.2 15.7 11.9C15.7 11.8 15.6 11.8 15.6 11.7ZM14.2 13.4V13C14.1 13 14.1 13 14 12.9C13.8 13.1 13.7 13.5 13.4 13.5C13 13.6 12 13.2 12.4 14.2C12.5 14.3 12.5 14.3 12.5 14.3C12.7 14.3 12.9 14.2 13.1 14.2C13.2 14.4 13.2 14.5 13.2 14.8C13.7 14.7 13.6 14.3 13.9 14.1C14 14 14 14 14.1 14C14.3 14.4 14.7 14.8 15.3 14.6C15.4 14.2 15.4 13.8 15.5 13.5C15.1 13.3 14.7 13.4 14.2 13.4ZM14 14.7C13.9 14.7 13.9 14.7 13.8 14.6C13.6 14.8 13.4 15 13.2 15C12.9 15 12.7 14.9 12.4 14.9C12.2 15.1 12 15.2 12 15.7C12.2 15.8 12.3 15.8 12.7 15.8C12.8 16 12.8 16.2 12.7 16.4H12.8C13.1 16.3 13.2 16 13.5 15.8H13.6C13.7 16.4 14.1 16.5 14.6 16.7C14.9 16.5 15 15.9 15.1 15.6C14.9 15.2 14.4 15.3 14 15.2C13.9 15.1 14 14.9 14 14.7ZM13.6 17L13.5 16.9C13.5 16.8 13.5 16.6 13.6 16.5C13.6 16.5 13.6 16.5 13.6 16.4H13.5C13.3 16.5 13.1 16.6 12.9 16.8C12.5 16.8 12.4 16.6 11.9 16.5C11.8 16.7 11.7 16.8 11.5 17V17.3C11.7 17.3 11.9 17.4 12.1 17.4C12.1 17.5 12.2 17.5 12.2 17.6C12.1 17.9 12 18 12.3 18.1C12.6 17.9 12.7 17.7 13.1 17.6C13.3 18.2 13.5 18.5 14.1 18.6C14.3 18.3 14.6 17.9 14.6 17.5C14.5 17.1 14.1 16.9 13.6 17ZM13 18.6C13 18.4 13 18.3 13.1 18.1C13.1 18.1 13 18.1 13 18C12.7 17.9 12.5 18.3 12.1 18.2C11.9 18.1 11.8 17.9 11.4 17.8C11.1 18 11 18.1 10.9 18.4C11 18.6 11.2 18.6 11.5 18.7C11.7 19 11.6 19.1 11.5 19.4C11.9 19.5 12.2 18.9 12.5 19.1C12.7 19.2 12.5 20 13.4 20.2C13.6 20 14 19.5 14 19.2C13.8 18.9 13.4 18.8 13 18.6ZM12.2 20.1C12.2 20 12.2 19.9 12.3 19.8L12.2 19.7H12.1C11.9 19.8 11.7 19.9 11.5 20.1C11.1 20.1 11 19.8 10.6 19.9C10.4 20 10.3 20.2 10.2 20.4V20.7C10.4 20.7 10.6 20.7 10.8 20.8C10.9 20.9 10.8 20.8 10.9 20.9C11 21.1 10.9 21.2 10.8 21.3C10.9 21.4 10.9 21.4 11 21.4C11.3 21.2 11.4 21 11.8 20.9C11.9 21.4 12.2 21.7 12.8 21.8C13 21.5 13.2 21.1 13.4 20.8C13.1 20.3 12.8 20.4 12.2 20.1C12.2 20.2 12.3 20.2 12.2 20.1ZM11.7 22C11.6 21.8 11.6 21.8 11.7 21.6C11.6 21.6 11.6 21.6 11.5 21.6C10.9 22.4 9.90002 21.6 9.90002 22.7L10 22.8C10.2 22.8 10.3 22.8 10.5 22.8C10.7 22.9 10.6 23 10.6 23.2V23.3C11 23.3 11.1 22.9 11.3 22.7H11.4C11.6 23.2 11.8 23.4 12.5 23.3C12.6 23 12.7 22.6 12.8 22.3C12.5 21.9 12.1 21.9 11.7 22Z" fill="white" fill-opacity="0.7"/>
</svg>
