<svg width="24" height="24" viewBox="0 0 24 24" fill="none" xmlns="http://www.w3.org/2000/svg">
<path d="M10.4001 20.1C10.0001 20.8 10.0001 21.8 10.4001 21.9C10.8001 22.1 11.8001 22.1999 12.1001 21.9C12.4001 21.6 12.5001 22.4 12.8001 22.5C13.1001 22.7 13.4001 21.8 14.0001 21.7C14.6001 21.6 14.4001 21 14.9001 21C15.4001 21 14.8001 21.4 15.3001 21.9C15.8001 22.4 17.9001 22.9 18.6001 22.9C19.3001 22.8 19.0001 21.6999 19.3001 20.9C19.5001 20.2 20.0001 19.7 18.9001 19.7C17.8001 19.6 16.3001 19.2 16.0001 19.2C15.6001 19.2 15.6001 19.4 14.7001 19.7C13.9001 19.9 13.5001 20.2 13.0001 19.9C12.5001 19.7 11.5001 19.7 11.2001 19.7C10.7001 19.8 10.5001 20 10.4001 20.1Z" fill="white" fill-opacity="0.7"/>
<path d="M9.60033 16.4C9.70033 16.2 9.90033 16.1 10.2003 16C10.4003 15.9 11.0003 15.9 11.5003 16C11.7003 16 11.8003 16.1 11.9003 16.1C12.4003 16.3 12.8003 16.2 13.6003 15.9C14.4003 15.7 14.5003 15.5 14.9003 15.5C15.0003 15.5 15.1003 15.5 15.2003 15.5C15.7003 15.6 16.6003 15.9 17.5003 16C17.6003 16 17.7003 16 17.8003 16C18.9003 16.1 18.5003 16.4 18.3003 17.1C18.2003 17.4 18.2003 17.8 18.2003 18.2C18.2003 18.7 18.1003 19.1 17.7003 19.1C17.0003 19.2 15.0003 18.7 14.5003 18.2C14.0003 17.8 14.5003 17.5 14.1003 17.4C13.6003 17.4 13.8003 17.9 13.2003 18C12.8003 18 12.7003 18.1 12.5003 18.3C12.3003 18.4 12.2003 18.5 12.1003 18.4C12.1003 18.4 12.0003 18.4 12.0003 18.3C11.8003 18.2 11.7003 17.9 11.5003 17.8C11.4003 17.8 11.4003 17.8 11.3003 17.8C11.1003 17.9 10.8003 17.9 10.4003 18C10.0003 18.1 9.70033 18.1 9.50033 18C9.30033 18 9.20033 17.7 9.20033 17.4C9.10033 17.3 9.30033 16.8 9.60033 16.4Z" fill="white" fill-opacity="0.7"/>
<path d="M9.3999 12.7C9.4999 12.5 9.6999 12.4 9.8999 12.3C10.0999 12.2 10.5999 12.1 11.0999 12.2C11.2999 12.2 11.3999 12.3 11.4999 12.3C11.9999 12.5 12.2999 12.4 13.0999 12.2C13.8999 11.9 13.8999 11.9 14.2999 12C14.3999 12 14.3999 12 14.5999 12.1C15.0999 12.2 15.7999 12.5 16.7999 12.6C16.8999 12.6 16.9999 12.6 17.0999 12.6C18.1999 12.7 17.8999 13 17.7999 13.6C17.6999 13.8 17.6999 14.3 17.6999 14.7C17.6999 15.2 17.5999 15.6 17.1999 15.7C16.5999 15.8 14.7999 15.3 14.1999 14.9C13.7999 14.6 14.1999 14.3 13.7999 14.3C13.3999 14.3 13.4999 14.8 12.9999 14.7C12.5999 14.7 12.6999 14.6 12.3999 14.7C12.1999 14.8 12.0999 14.8 11.8999 14.8H11.7999C11.5999 14.8 11.4999 14.5 11.1999 14.4C11.0999 14.4 11.0999 14.4 10.9999 14.4C10.7999 14.5 10.3999 14.5 10.0999 14.7C9.6999 14.9 9.3999 15 9.1999 15C8.9999 15 8.8999 14.6 8.8999 14.3C8.8999 13.6 9.1999 13.1 9.3999 12.7Z" fill="white" fill-opacity="0.7"/>
<path d="M9.20017 8.99995C9.30017 8.79995 9.50017 8.69995 9.70017 8.59995C9.90017 8.49995 10.2002 8.29995 10.8002 8.39995C10.9002 8.39995 11.1002 8.39995 11.2002 8.49995C11.7002 8.69995 12.0002 8.69995 12.7002 8.39995C13.4002 8.09995 13.5002 8.19995 13.8002 8.29995C13.9002 8.29995 13.9002 8.29995 14.0002 8.39995C14.5002 8.49995 15.1002 8.79995 16.1002 8.99995C16.2002 8.99995 16.3002 8.99995 16.4002 8.99995C17.5002 9.09995 17.3002 9.39995 17.2002 9.79995C17.1002 9.99995 17.1002 10.4 17.1002 10.9C17.0002 11.4 17.0002 11.9 16.7002 11.9C16.2002 12 14.6002 11.6 13.9002 11.2C13.5002 11 13.8002 10.7 13.4002 10.7C13.0002 10.7 13.0002 11.1 12.6002 11C12.2002 11 12.4002 10.6 12.1002 10.6C11.9002 10.6 11.8002 10.5 11.6002 10.6H11.5002C11.2002 10.7 11.2002 10.4 10.8002 10.3C10.7002 10.3 10.7002 10.3 10.6002 10.3C10.3002 10.4 10.0002 10.4 9.60017 10.6C9.20017 10.9 8.90017 11 8.70017 11.1C8.50017 11.1 8.40017 10.6 8.50017 10.4C8.60017 9.89995 9.00017 9.49995 9.20017 8.99995Z" fill="white" fill-opacity="0.7"/>
<path d="M8.4001 5.30008C8.5001 5.20008 8.6001 5.00008 8.8001 4.90008C8.9001 4.70008 9.2001 4.50008 9.7001 4.60008C9.8001 4.60008 10.0001 4.60008 10.1001 4.70008C10.6001 4.90008 10.8001 5.00008 11.5001 4.70008C12.2001 4.40008 12.3001 4.50008 12.6001 4.70008C12.7001 4.70008 12.7001 4.80008 12.8001 4.80008C13.3001 4.90008 13.7001 5.20008 14.8001 5.40008C14.9001 5.40008 15.0001 5.40008 15.1001 5.50008C16.2001 5.70008 16.1001 5.90008 16.0001 6.20008C16.0001 6.20008 16.0001 6.70008 16.0001 7.20008C15.9001 7.70008 15.9001 8.20008 15.6001 8.20008C15.2001 8.30008 13.7001 8.00008 13.1001 7.70008C12.7001 7.50008 12.9001 7.30008 12.6001 7.30008C12.2001 7.30008 12.2001 7.50008 11.9001 7.50008C11.5001 7.40008 11.9001 6.80008 11.6001 6.80008C11.4001 6.80008 11.3001 6.60008 11.1001 6.70008C11.1001 6.70008 11.0001 6.70008 11.0001 6.80008C10.7001 7.00008 10.7001 6.70008 10.2001 6.60008C10.1001 6.60008 10.0001 6.60008 10.0001 6.60008C9.7001 6.60008 9.3001 6.60008 8.9001 7.00008C8.4001 7.30008 8.1001 7.50008 7.8001 7.60008C7.6001 7.70008 7.6001 7.10008 7.6001 6.90008C7.7001 6.20008 8.1001 5.80008 8.4001 5.30008Z" fill="white" fill-opacity="0.7"/>
<path d="M7.5001 1.60005C7.6001 1.40005 7.7001 1.30005 7.8001 1.10005C8.0001 1.00005 8.1001 0.700053 8.6001 0.800053C8.7001 0.800053 8.9001 0.800053 9.0001 0.900053C9.5001 1.00005 9.7001 1.20005 10.3001 0.900053C10.9001 0.600053 11.0001 0.800053 11.3001 1.00005C11.4001 1.00005 11.4001 1.10005 11.5001 1.10005C12.0001 1.30005 12.3001 1.50005 13.4001 1.80005C13.5001 1.80005 13.6001 1.80005 13.7001 1.90005C14.8001 2.10005 14.8001 2.30005 14.8001 2.50005C14.8001 2.60005 14.7001 3.10005 14.7001 3.60005C14.6001 4.10005 14.6001 4.60005 14.4001 4.70005C14.1001 4.80005 12.8001 4.60005 12.1001 4.30005C11.8001 4.20005 11.9001 4.00005 11.6001 4.00005C11.3001 4.00005 11.2001 4.10005 10.9001 4.10005C10.4001 4.00005 11.0001 3.20005 10.7001 3.10005C10.4001 3.00005 10.4001 2.80005 10.1001 2.90005L10.0001 3.00005C9.7001 3.20005 9.7001 2.90005 9.2001 2.70005C9.1001 2.70005 9.0001 2.70005 8.9001 2.70005C8.5001 2.70005 8.2001 2.70005 7.8001 3.10005C7.3001 3.70005 7.1001 3.90005 6.8001 4.10005C6.6001 4.20005 6.6001 3.50005 6.6001 3.20005C6.7001 2.50005 7.2001 2.10005 7.5001 1.60005Z" fill="white" fill-opacity="0.7"/>
</svg>
